PathFileType	4	(X/Y/Z)	C:\Users\WrightLab\Desktop\Jo\P1.2Trial16.trc
DataRate	CameraRate	NumFrames	NumMarkers	Units	OrigDataRate	OrigDataStartFrame	OrigNumFrames
100.00	100.00	       13	19	mm	100.00	116	       463
Frame#	Time	Headset_Front			Headset_Back			Headset_Left			Headset_Right			Left_Shoulder			Right_Shoulder			Sternum			C7			Left Elbow			Right Elbow			Left Wrist			Right Wrist			Left ASIS			Right ASIS			S2			Left Knee			Right Knee			Left Ankle			Right Ankle			
		X1	Y1	Z1	X2	Y2	Z2	X3	Y3	Z3	X4	Y4	Z4	X5	Y5	Z5	X6	Y6	Z6	X7	Y7	Z7	X8	Y8	Z8	X9	Y9	Z9	X10	Y10	Z10	X11	Y11	Z11	X12	Y12	Z12	X13	Y13	Z13	X14	Y14	Z14	X15	Y15	Z15	X16	Y16	Z16	X17	Y17	Z17	X18	Y18	Z18	X19	Y19	Z19	

116	1.150	-409.05228	1357.18079	250.52292	-554.05444	1506.77869	25.86234	-402.99127	1429.69104	51.12189	-549.30505	1409.14673	229.14375	-372.39319	1225.27380	-78.65509	-701.89160	1244.69360	191.51340	-467.44070	1165.23364	149.67979	-606.13232	1299.68457	-28.36369	-385.82999	948.18628	-180.34419	-796.31921	1008.76910	254.11224	-289.86060	727.82330	-138.35329	-765.15448	790.69305	419.23639	-389.66864	849.70642	65.06540	-625.42517	848.74481	202.54439	-638.55627	901.89612	-113.14156	-335.59686	493.13586	176.01785	-694.31610	414.22571	139.70396	-294.81494	144.64516	219.41759	-765.11414	85.83970	22.71082	
117	1.160	-402.08804	1354.83655	256.72067	-548.74872	1505.30859	33.55372	-397.40869	1428.00818	57.45433	-542.64905	1407.00488	237.14716	-366.59839	1224.09924	-71.26491	-696.61877	1243.03503	199.68729	-461.61188	1163.80920	157.93498	-600.58490	1298.69360	-20.99265	-382.40829	946.12604	-171.49649	-789.47449	1007.65717	263.13586	-286.50034	725.27386	-131.70551	-756.37811	791.04047	429.20395	-385.54678	847.86810	74.25539	-619.35193	847.91559	211.96504	-633.17975	900.83032	-105.34540	-332.28870	490.53229	182.38271	-690.11932	413.50613	146.20610	-279.45181	150.41637	233.98737	-764.32489	85.70734	24.09529	
118	1.170	-395.71918	1353.30115	262.99347	-543.43677	1503.41870	41.97342	-391.14651	1427.00940	65.20473	-536.11279	1405.23267	245.03778	-360.80246	1222.26953	-63.53211	-690.40735	1242.14124	206.56839	-456.06137	1162.31982	166.12695	-594.52307	1297.27795	-13.24442	-377.54843	944.49969	-164.39871	-782.72327	1006.37854	271.93967	-282.32208	723.53400	-125.12792	-747.53552	791.02393	438.94360	-380.22406	846.27173	82.73470	-614.50537	846.28400	219.11363	-627.25848	898.69470	-96.54360	-328.63663	486.60919	188.10699	-687.04034	412.02124	151.66206	-265.94922	156.66681	246.97682	-763.55493	86.77165	26.53027	
119	1.180	-388.63629	1352.60522	270.48596	-537.78290	1501.74597	50.16555	-385.18448	1425.03174	72.81958	-529.51447	1403.35864	252.94711	-354.29596	1220.05640	-55.22759	-683.70123	1240.38306	215.70183	-449.91013	1160.88586	174.31897	-587.81000	1295.22571	-5.29016	-372.99139	942.89026	-157.13225	-774.96198	1004.60565	280.48434	-278.03616	721.27124	-118.44982	-738.73657	790.65906	448.57248	-374.98553	844.76410	92.69545	-608.99921	844.29840	227.13074	-621.62897	897.70020	-88.52905	-325.19003	485.00507	192.95726	-683.86694	410.35773	157.40805	-254.18681	162.53009	259.81229	-762.88611	87.67036	29.67602	
120	1.190	-382.38770	1350.63025	278.20651	-532.14655	1499.89673	57.19657	-379.38971	1424.23010	79.65076	-522.63165	1401.59412	260.93497	-348.30881	1218.49597	-47.02600	-677.49542	1239.24744	224.25281	-443.51199	1159.13281	182.58243	-581.85248	1293.70435	2.00804	-368.18399	941.24164	-148.50746	-767.86084	1002.84698	288.59015	-273.27615	719.20709	-111.15194	-729.67871	789.50201	458.00616	-369.14548	843.08380	101.35905	-603.48907	843.91821	234.78920				-320.85434	483.07141	200.02614	-679.97034	408.47232	163.14926	-243.35159	166.84442	271.25064	-762.24200	87.97217	31.59649	
121	1.200	-375.02567	1349.71277	285.50165	-526.20734	1498.14453	65.34238	-373.07590	1422.80981	87.97657	-516.30261	1399.95618	268.75476	-341.17206	1215.95691	-39.48250	-670.24292	1237.66296	229.92578	-437.03745	1157.43164	190.49986	-574.43646	1291.56677	10.36463	-363.04016	939.69159	-140.22420	-760.48547	1001.14417	296.31467	-268.05466	717.55231	-104.14771	-721.46704	788.98907	466.08554	-363.44070	841.13550	110.14942	-597.93860	843.01825	243.08862	-608.82526	894.22491	-71.65295	-315.19885	483.16885	207.40454	-677.01581	407.04599	170.26326	-234.07222	170.12354	280.58353	-761.36853	88.25248	32.87295	
122	1.210	-367.63464	1348.61377	292.88608	-519.93414	1496.51514	74.39532	-366.50369	1422.31506	94.93462	-508.82205	1398.56616	276.04822	-334.21375	1214.01025	-31.63554	-663.97205	1236.28162	238.59499	-429.81836	1156.59619	198.37706	-567.32831	1290.34180	18.20905	-356.93149	937.65393	-132.15509	-752.87091	999.47583	303.58218	-263.31952	714.55872	-97.52924	-712.85370	787.58362	473.92978	-357.29822	839.30908	119.23079	-591.44806	842.19257	252.38780	-601.80042	892.17340	-62.99011	-309.59488	482.17566	215.52069	-673.64587	406.29779	176.85867	-225.71310	171.69678	288.82565	-761.14008	90.02283	34.86835	
123	1.220	-359.76462	1347.40344	299.91452	-513.54669	1495.35120	81.57536	-359.81204	1421.45642	102.57316	-502.10168	1396.83679	283.89218	-327.07440	1212.23486	-23.67890	-656.51056	1234.80493	244.27121	-423.23666	1155.47607	206.70842	-560.20117	1288.86084	25.01937	-351.77545	935.49500	-124.13377	-745.25067	998.03442	310.59521	-257.61453	712.54889	-89.73171	-704.74719	786.25848	480.98746	-351.26337	837.97107	128.42567	-584.64148	841.37616	261.79044	-595.03949	890.93353	-54.93546	-303.20557	482.50507	225.20895	-669.92084	405.42606	183.86473	-219.62253	171.37750	294.28851	-760.78137	91.42999	34.96807	
124	1.230	-352.58023	1346.95508	307.42612	-506.88232	1494.61292	88.30313	-353.15613	1420.79797	109.68510	-495.10178	1395.75012	291.36606	-319.79514	1210.08203	-16.41206	-649.71991	1233.85254	252.82103	-415.48663	1154.55054	214.14857	-552.63873	1287.73108	32.31606	-344.48810	933.38898	-116.23450	-737.15765	996.08282	317.61447	-251.34775	710.84509	-82.10313	-696.73840	785.08398	489.34842	-344.85135	836.43915	137.75345	-577.94727	840.61224	271.17572	-588.20514	889.30701	-45.56371	-296.79297	482.28067	233.46329	-666.03503	404.46133	190.89906	-213.57458	167.93031	298.74005	-760.12225	92.68819	35.89308	
125	1.240	-345.49191	1346.88904	315.35388	-499.87387	1493.75305	96.03471	-345.57117	1420.93750	117.76015	-487.88068	1394.89111	298.90741	-312.12466	1208.62988	-8.72106	-642.39929	1232.81091	259.03983	-406.99051	1153.27808	222.57561	-544.57104	1285.92212	39.96790	-337.44507	931.03229	-107.97197	-729.40729	994.86029	324.16122	-245.31601	708.62311	-74.33824	-689.99298	783.84937	496.02905	-336.75961	835.34363	147.42577	-570.72736	839.99530	280.64282	-580.49341	886.79749	-35.97387	-290.04794	482.46191	244.33783	-660.72656	403.33972	197.36894	-209.37054	162.54817	300.32379	-758.57910	94.47577	36.21455	
126	1.250	-338.16678	1346.72192	322.33850	-492.58371	1493.22424	103.78865	-338.71097	1421.33154	124.80315	-480.70557	1394.07410	306.07559	-304.34442	1207.05188	-1.67374	-634.36963	1231.29297	268.31778	-399.47391	1153.12134	230.62947	-537.51367	1285.73022	47.34607	-330.17023	929.57330	-99.61291	-721.33966	993.99365	330.40686	-238.29721	706.23877	-65.90936	-682.93475	781.78223	502.63037	-328.83798	834.56305	155.03661	-563.60626	839.04736	289.12439	-573.10956	885.95209	-27.07039	-282.94418	480.87274	254.64310	-655.79230	403.27609	205.31718	-205.74539	155.12244	300.51254	-757.46149	96.40588	39.59662	
127	1.260	-330.52203	1346.93970	330.29736	-484.60651	1492.87598	111.56011	-331.04614	1420.94348	132.81537	-473.01242	1393.41260	313.68176	-296.78293	1205.58789	5.86258	-625.82672	1231.72717	276.01941	-391.29169	1153.01160	238.58904	-528.58704	1284.77014	55.16112	-322.88235	928.07483	-91.41859	-713.46606	992.57935	336.49866	-231.37131	704.54962	-57.38362	-676.11200	780.21155	507.49060	-321.09579	833.56360	164.47606	-555.83356	839.17926	299.39865	-565.50256	884.80731	-17.61290	-274.36038	479.15259	264.02103	-650.12164	403.17581	213.24043	-202.58424	147.47827	299.27429	-755.79956	98.27478	41.71732	
128	1.270	-323.19098	1346.89771	338.29523	-476.88986	1493.17773	119.18379	-322.40591	1421.64490	141.35831	-465.67603	1393.62561	321.00308	-288.56396	1204.37683	13.63739	-618.06128	1231.45996	282.74872	-381.72058	1152.96338	246.38974	-520.09302	1283.90967	63.50624	-315.05966	926.00592	-82.98265	-705.03290	991.50958	342.21808	-223.89685	703.59772	-48.95786	-670.42340	779.18280	512.19812	-312.67426	833.27716	173.44521	-547.63031	839.64758	309.33817	-557.14679	883.26410	-7.91965	-266.66422	476.42590	274.41193	-643.43341	403.60880	221.75365	-198.85507	140.96028	298.23669	-755.09186	103.17281	45.95357	
